%TF.GenerationSoftware,KiCad,Pcbnew,9.0.0*%
%TF.CreationDate,2025-03-20T16:07:02+05:30*%
%TF.ProjectId,demo-2,64656d6f-2d32-42e6-9b69-6361645f7063,rev?*%
%TF.SameCoordinates,Original*%
%TF.FileFunction,Copper,L1,Top*%
%TF.FilePolarity,Positive*%
%FSLAX46Y46*%
G04 Gerber Fmt 4.6, Leading zero omitted, Abs format (unit mm)*
G04 Created by KiCad (PCBNEW 9.0.0) date 2025-03-20 16:07:02*
%MOMM*%
%LPD*%
G01*
G04 APERTURE LIST*
G04 Aperture macros list*
%AMRoundRect*
0 Rectangle with rounded corners*
0 $1 Rounding radius*
0 $2 $3 $4 $5 $6 $7 $8 $9 X,Y pos of 4 corners*
0 Add a 4 corners polygon primitive as box body*
4,1,4,$2,$3,$4,$5,$6,$7,$8,$9,$2,$3,0*
0 Add four circle primitives for the rounded corners*
1,1,$1+$1,$2,$3*
1,1,$1+$1,$4,$5*
1,1,$1+$1,$6,$7*
1,1,$1+$1,$8,$9*
0 Add four rect primitives between the rounded corners*
20,1,$1+$1,$2,$3,$4,$5,0*
20,1,$1+$1,$4,$5,$6,$7,0*
20,1,$1+$1,$6,$7,$8,$9,0*
20,1,$1+$1,$8,$9,$2,$3,0*%
G04 Aperture macros list end*
%TA.AperFunction,Conductor*%
%ADD10C,0.200000*%
%TD*%
%TA.AperFunction,SMDPad,CuDef*%
%ADD11R,2.200000X1.600000*%
%TD*%
%TA.AperFunction,ComponentPad*%
%ADD12R,1.600000X3.500000*%
%TD*%
%TA.AperFunction,ComponentPad*%
%ADD13O,1.600000X3.500000*%
%TD*%
%TA.AperFunction,ComponentPad*%
%ADD14C,2.100000*%
%TD*%
%TA.AperFunction,ComponentPad*%
%ADD15O,3.200000X1.600000*%
%TD*%
%TA.AperFunction,SMDPad,CuDef*%
%ADD16RoundRect,0.100000X-0.130000X-0.100000X0.130000X-0.100000X0.130000X0.100000X-0.130000X0.100000X0*%
%TD*%
%TA.AperFunction,ComponentPad*%
%ADD17R,3.700000X3.700000*%
%TD*%
%TA.AperFunction,ComponentPad*%
%ADD18C,3.700000*%
%TD*%
%TA.AperFunction,ComponentPad*%
%ADD19C,3.200000*%
%TD*%
%TA.AperFunction,SMDPad,CuDef*%
%ADD20RoundRect,0.150000X-0.825000X-0.150000X0.825000X-0.150000X0.825000X0.150000X-0.825000X0.150000X0*%
%TD*%
%TA.AperFunction,ComponentPad*%
%ADD21C,1.620000*%
%TD*%
%TA.AperFunction,ComponentPad*%
%ADD22R,1.600000X1.600000*%
%TD*%
%TA.AperFunction,ComponentPad*%
%ADD23O,1.600000X1.600000*%
%TD*%
%TA.AperFunction,ViaPad*%
%ADD24C,0.600000*%
%TD*%
G04 APERTURE END LIST*
D10*
%TO.N,Net-(U1-Q)*%
X134000000Y-88500000D02*
X134000000Y-89000000D01*
%TO.N,Net-(U1-CV)*%
X126500000Y-93500000D02*
X124500000Y-89000000D01*
%TD*%
D11*
%TO.P,C1,1*%
%TO.N,Net-(U1-CV)*%
X124640000Y-89120000D03*
%TO.P,C1,2*%
%TO.N,GND*%
X127640000Y-89120000D03*
%TD*%
D12*
%TO.P,J2,1,Pin_1*%
%TO.N,Net-(J1-Pin_1)*%
X124500000Y-67787500D03*
D13*
%TO.P,J2,2,Pin_2*%
%TO.N,GND*%
X129500000Y-67787500D03*
D14*
%TO.P,J2,3*%
%TO.N,N/C*%
X133000000Y-70937500D03*
D15*
%TO.P,J2,4*%
X127000000Y-76937500D03*
D12*
%TO.P,J2,SH*%
X119150000Y-66437500D03*
X119150000Y-74937500D03*
X134850000Y-66437500D03*
X134850000Y-74937500D03*
%TD*%
D16*
%TO.P,D2,1,K*%
%TO.N,Net-(D2-K)*%
X149155000Y-91050000D03*
%TO.P,D2,2,A*%
%TO.N,Net-(D2-A)*%
X149795000Y-91050000D03*
%TD*%
D17*
%TO.P,J1,1,Pin_1*%
%TO.N,Net-(J1-Pin_1)*%
X148090000Y-70150000D03*
D18*
%TO.P,J1,2,Pin_2*%
%TO.N,Net-(J1-Pin_2)*%
X153090000Y-70150000D03*
D14*
%TO.P,J1,3*%
%TO.N,N/C*%
X156590000Y-73300000D03*
D19*
%TO.P,J1,4*%
X150590000Y-79300000D03*
%TD*%
D20*
%TO.P,U1,1,GND*%
%TO.N,GND*%
X131265000Y-92495000D03*
%TO.P,U1,2,TR*%
%TO.N,Net-(U1-THR)*%
X131265000Y-93765000D03*
%TO.P,U1,3,Q*%
%TO.N,Net-(U1-Q)*%
X131265000Y-95035000D03*
%TO.P,U1,4,R*%
%TO.N,Net-(J1-Pin_1)*%
X131265000Y-96305000D03*
%TO.P,U1,5,CV*%
%TO.N,Net-(U1-CV)*%
X136215000Y-96305000D03*
%TO.P,U1,6,THR*%
%TO.N,Net-(U1-THR)*%
X136215000Y-95035000D03*
%TO.P,U1,7,DIS*%
%TO.N,Net-(D2-A)*%
X136215000Y-93765000D03*
%TO.P,U1,8,VCC*%
%TO.N,Net-(J1-Pin_1)*%
X136215000Y-92495000D03*
%TD*%
D21*
%TO.P,RV1,1,1*%
%TO.N,Net-(D3-A)*%
X143740000Y-91800000D03*
%TO.P,RV1,2,2*%
%TO.N,Net-(U1-THR)*%
X146240000Y-94300000D03*
%TO.P,RV1,3,3*%
%TO.N,Net-(D2-K)*%
X143740000Y-96800000D03*
%TD*%
D11*
%TO.P,C2,1*%
%TO.N,Net-(U1-THR)*%
X122000000Y-96000000D03*
%TO.P,C2,2*%
%TO.N,GND*%
X125000000Y-96000000D03*
%TD*%
D16*
%TO.P,D3,1,K*%
%TO.N,Net-(D2-A)*%
X149155000Y-92800000D03*
%TO.P,D3,2,A*%
%TO.N,Net-(D3-A)*%
X149795000Y-92800000D03*
%TD*%
D22*
%TO.P,R1,1*%
%TO.N,Net-(Q1-G)*%
X131740000Y-88870000D03*
D23*
%TO.P,R1,2*%
%TO.N,Net-(U1-Q)*%
X134280000Y-88870000D03*
%TO.P,R1,3*%
%TO.N,N/C*%
X136820000Y-88870000D03*
%TO.P,R1,4*%
X139360000Y-88870000D03*
%TD*%
D22*
%TO.P,R2,1*%
%TO.N,Net-(J1-Pin_1)*%
X144340000Y-88000000D03*
D23*
%TO.P,R2,2*%
%TO.N,Net-(D2-A)*%
X146880000Y-88000000D03*
%TO.P,R2,3*%
%TO.N,N/C*%
X149420000Y-88000000D03*
%TO.P,R2,4*%
X151960000Y-88000000D03*
%TO.P,R2,5*%
X154500000Y-88000000D03*
%TD*%
D24*
%TO.N,Net-(U1-CV)*%
X126500000Y-93500000D03*
X129000000Y-98500000D03*
%TO.N,Net-(D2-K)*%
X148500000Y-92000000D03*
X148000000Y-94000000D03*
%TO.N,Net-(D2-A)*%
X143000000Y-90500000D03*
X139000000Y-93500000D03*
X143000000Y-90500000D03*
X143000000Y-90500000D03*
%TD*%
D10*
%TO.N,*%
X119150000Y-66500000D02*
X119150000Y-75000000D01*
%TO.N,Net-(U1-CV)*%
X134020000Y-98500000D02*
X129000000Y-98500000D01*
X136215000Y-96305000D02*
X134020000Y-98500000D01*
%TO.N,GND*%
X131015000Y-92495000D02*
X127640000Y-89120000D01*
X124650000Y-63000000D02*
X129500000Y-67850000D01*
X129401000Y-87359000D02*
X129401000Y-76599470D01*
X123419000Y-70617470D02*
X123419000Y-63000000D01*
X123419000Y-63000000D02*
X124650000Y-63000000D01*
X129401000Y-76599470D02*
X123419000Y-70617470D01*
X128505000Y-92495000D02*
X131265000Y-92495000D01*
X127640000Y-89120000D02*
X129401000Y-87359000D01*
X125000000Y-96000000D02*
X128505000Y-92495000D01*
X131265000Y-92495000D02*
X131015000Y-92495000D01*
%TO.N,Net-(U1-THR)*%
X130290001Y-93765000D02*
X129989000Y-94066001D01*
X130290001Y-93765000D02*
X126954001Y-97101000D01*
X129989000Y-96645968D02*
X130249032Y-96906000D01*
X129989000Y-94066001D02*
X129989000Y-96645968D01*
X145505000Y-95035000D02*
X146240000Y-94300000D01*
X136215000Y-95035000D02*
X145505000Y-95035000D01*
X135868032Y-95035000D02*
X136215000Y-95035000D01*
X133997032Y-96906000D02*
X135868032Y-95035000D01*
X131265000Y-93765000D02*
X130290001Y-93765000D01*
X123101000Y-97101000D02*
X122000000Y-96000000D01*
X126954001Y-97101000D02*
X123101000Y-97101000D01*
X130249032Y-96906000D02*
X133997032Y-96906000D01*
%TO.N,Net-(D2-K)*%
X148000000Y-94500000D02*
X148000000Y-94101000D01*
X143740000Y-96800000D02*
X145700000Y-96800000D01*
X148500000Y-91705000D02*
X149155000Y-91050000D01*
X148500000Y-92000000D02*
X148500000Y-91705000D01*
X145700000Y-96800000D02*
X148000000Y-94500000D01*
%TO.N,Net-(D2-A)*%
X149795000Y-90850001D02*
X149795000Y-91050000D01*
X149795000Y-91050000D02*
X149795000Y-91960001D01*
X139000000Y-93500000D02*
X138735000Y-93765000D01*
X144380000Y-90500000D02*
X143000000Y-90500000D01*
X146880000Y-88000000D02*
X144380000Y-90500000D01*
X149795000Y-91960001D02*
X149155000Y-92600001D01*
X149155000Y-92600001D02*
X149155000Y-92800000D01*
X146944999Y-88000000D02*
X149795000Y-90850001D01*
X138735000Y-93765000D02*
X136215000Y-93765000D01*
X146880000Y-88000000D02*
X146944999Y-88000000D01*
%TO.N,Net-(D3-A)*%
X149500000Y-94500000D02*
X149795000Y-94205000D01*
X149795000Y-94205000D02*
X149795000Y-92800000D01*
X143740000Y-91800000D02*
X146800000Y-91800000D01*
X146800000Y-91800000D02*
X149500000Y-94500000D01*
%TO.N,Net-(J1-Pin_1)*%
X136500000Y-73900000D02*
X136500000Y-73538000D01*
X144340000Y-88000000D02*
X139845000Y-92495000D01*
X144340000Y-73900000D02*
X144340000Y-88000000D01*
X131611968Y-96305000D02*
X131265000Y-96305000D01*
X135293000Y-72331000D02*
X128981000Y-72331000D01*
X136500000Y-73538000D02*
X135293000Y-72331000D01*
X135421968Y-92495000D02*
X131611968Y-96305000D01*
X144340000Y-73900000D02*
X136500000Y-73900000D01*
X139845000Y-92495000D02*
X136215000Y-92495000D01*
X136215000Y-92495000D02*
X135421968Y-92495000D01*
X128981000Y-72331000D02*
X124500000Y-67850000D01*
X148090000Y-70150000D02*
X144340000Y-73900000D01*
%TO.N,Net-(U1-Q)*%
X134280000Y-88870000D02*
X134280000Y-92994999D01*
X132239999Y-95035000D02*
X131265000Y-95035000D01*
X134280000Y-92994999D02*
X132239999Y-95035000D01*
%TD*%
M02*
