M48
; DRILL file {KiCad 9.0.0} date 2025-03-20T16:07:11+0530
; FORMAT={-:-/ absolute / metric / decimal}
; #@! TF.CreationDate,2025-03-20T16:07:11+05:30
; #@! TF.GenerationSoftware,Kicad,Pcbnew,9.0.0
; #@! TF.FileFunction,Plated,1,2,PTH
FMAT,2
METRIC
; #@! TA.AperFunction,Plated,PTH,ViaDrill
T1C0.300
; #@! TA.AperFunction,Plated,PTH,ComponentDrill
T2C0.700
; #@! TA.AperFunction,Plated,PTH,ComponentDrill
T3C0.800
; #@! TA.AperFunction,Plated,PTH,ComponentDrill
T4C0.900
; #@! TA.AperFunction,Plated,PTH,ComponentDrill
T5C1.000
; #@! TA.AperFunction,Plated,PTH,ComponentDrill
T6C1.100
; #@! TA.AperFunction,Plated,PTH,ComponentDrill
T7C2.200
; #@! TA.AperFunction,Plated,PTH,ComponentDrill
T8C2.700
%
G90
G05
T1
X126.5Y-93.5
X129.0Y-98.5
X139.0Y-93.5
X143.0Y-90.5
X143.0Y-90.5
X143.0Y-90.5
X148.0Y-94.0
X148.5Y-92.0
T3
X131.74Y-88.87
X134.28Y-88.87
X136.82Y-88.87
X139.36Y-88.87
X144.34Y-88.0
X146.88Y-88.0
X149.42Y-88.0
X151.96Y-88.0
X154.5Y-88.0
T4
X143.74Y-91.8
X143.74Y-96.8
X146.24Y-94.3
T5
X133.0Y-70.938
T6
X156.59Y-73.3
T7
X150.59Y-79.3
T8
X148.09Y-70.15
X153.09Y-70.15
T2
G00X119.15Y-65.337
M15
G01X119.15Y-67.537
M16
G05
G00X119.15Y-73.837
M15
G01X119.15Y-76.037
M16
G05
G00X124.5Y-66.888
M15
G01X124.5Y-68.688
M16
G05
G00X126.25Y-76.938
M15
G01X127.75Y-76.938
M16
G05
G00X129.5Y-66.888
M15
G01X129.5Y-68.688
M16
G05
G00X134.85Y-65.337
M15
G01X134.85Y-67.537
M16
G05
G00X134.85Y-73.837
M15
G01X134.85Y-76.037
M16
G05
M30
