%TF.GenerationSoftware,KiCad,Pcbnew,9.0.0*%
%TF.CreationDate,2025-03-20T16:07:02+05:30*%
%TF.ProjectId,demo-2,64656d6f-2d32-42e6-9b69-6361645f7063,rev?*%
%TF.SameCoordinates,Original*%
%TF.FileFunction,Legend,Top*%
%TF.FilePolarity,Positive*%
%FSLAX46Y46*%
G04 Gerber Fmt 4.6, Leading zero omitted, Abs format (unit mm)*
G04 Created by KiCad (PCBNEW 9.0.0) date 2025-03-20 16:07:02*
%MOMM*%
%LPD*%
G01*
G04 APERTURE LIST*
%ADD10C,0.150000*%
%ADD11C,0.120000*%
%ADD12C,0.100000*%
G04 APERTURE END LIST*
D10*
X125973333Y-86779580D02*
X125925714Y-86827200D01*
X125925714Y-86827200D02*
X125782857Y-86874819D01*
X125782857Y-86874819D02*
X125687619Y-86874819D01*
X125687619Y-86874819D02*
X125544762Y-86827200D01*
X125544762Y-86827200D02*
X125449524Y-86731961D01*
X125449524Y-86731961D02*
X125401905Y-86636723D01*
X125401905Y-86636723D02*
X125354286Y-86446247D01*
X125354286Y-86446247D02*
X125354286Y-86303390D01*
X125354286Y-86303390D02*
X125401905Y-86112914D01*
X125401905Y-86112914D02*
X125449524Y-86017676D01*
X125449524Y-86017676D02*
X125544762Y-85922438D01*
X125544762Y-85922438D02*
X125687619Y-85874819D01*
X125687619Y-85874819D02*
X125782857Y-85874819D01*
X125782857Y-85874819D02*
X125925714Y-85922438D01*
X125925714Y-85922438D02*
X125973333Y-85970057D01*
X126925714Y-86874819D02*
X126354286Y-86874819D01*
X126640000Y-86874819D02*
X126640000Y-85874819D01*
X126640000Y-85874819D02*
X126544762Y-86017676D01*
X126544762Y-86017676D02*
X126449524Y-86112914D01*
X126449524Y-86112914D02*
X126354286Y-86160533D01*
X126666666Y-62892319D02*
X126666666Y-63606604D01*
X126666666Y-63606604D02*
X126619047Y-63749461D01*
X126619047Y-63749461D02*
X126523809Y-63844700D01*
X126523809Y-63844700D02*
X126380952Y-63892319D01*
X126380952Y-63892319D02*
X126285714Y-63892319D01*
X127095238Y-62987557D02*
X127142857Y-62939938D01*
X127142857Y-62939938D02*
X127238095Y-62892319D01*
X127238095Y-62892319D02*
X127476190Y-62892319D01*
X127476190Y-62892319D02*
X127571428Y-62939938D01*
X127571428Y-62939938D02*
X127619047Y-62987557D01*
X127619047Y-62987557D02*
X127666666Y-63082795D01*
X127666666Y-63082795D02*
X127666666Y-63178033D01*
X127666666Y-63178033D02*
X127619047Y-63320890D01*
X127619047Y-63320890D02*
X127047619Y-63892319D01*
X127047619Y-63892319D02*
X127666666Y-63892319D01*
X148736905Y-90454819D02*
X148736905Y-89454819D01*
X148736905Y-89454819D02*
X148975000Y-89454819D01*
X148975000Y-89454819D02*
X149117857Y-89502438D01*
X149117857Y-89502438D02*
X149213095Y-89597676D01*
X149213095Y-89597676D02*
X149260714Y-89692914D01*
X149260714Y-89692914D02*
X149308333Y-89883390D01*
X149308333Y-89883390D02*
X149308333Y-90026247D01*
X149308333Y-90026247D02*
X149260714Y-90216723D01*
X149260714Y-90216723D02*
X149213095Y-90311961D01*
X149213095Y-90311961D02*
X149117857Y-90407200D01*
X149117857Y-90407200D02*
X148975000Y-90454819D01*
X148975000Y-90454819D02*
X148736905Y-90454819D01*
X149689286Y-89550057D02*
X149736905Y-89502438D01*
X149736905Y-89502438D02*
X149832143Y-89454819D01*
X149832143Y-89454819D02*
X150070238Y-89454819D01*
X150070238Y-89454819D02*
X150165476Y-89502438D01*
X150165476Y-89502438D02*
X150213095Y-89550057D01*
X150213095Y-89550057D02*
X150260714Y-89645295D01*
X150260714Y-89645295D02*
X150260714Y-89740533D01*
X150260714Y-89740533D02*
X150213095Y-89883390D01*
X150213095Y-89883390D02*
X149641667Y-90454819D01*
X149641667Y-90454819D02*
X150260714Y-90454819D01*
X150256666Y-66254819D02*
X150256666Y-66969104D01*
X150256666Y-66969104D02*
X150209047Y-67111961D01*
X150209047Y-67111961D02*
X150113809Y-67207200D01*
X150113809Y-67207200D02*
X149970952Y-67254819D01*
X149970952Y-67254819D02*
X149875714Y-67254819D01*
X151256666Y-67254819D02*
X150685238Y-67254819D01*
X150970952Y-67254819D02*
X150970952Y-66254819D01*
X150970952Y-66254819D02*
X150875714Y-66397676D01*
X150875714Y-66397676D02*
X150780476Y-66492914D01*
X150780476Y-66492914D02*
X150685238Y-66540533D01*
X132978095Y-90454819D02*
X132978095Y-91264342D01*
X132978095Y-91264342D02*
X133025714Y-91359580D01*
X133025714Y-91359580D02*
X133073333Y-91407200D01*
X133073333Y-91407200D02*
X133168571Y-91454819D01*
X133168571Y-91454819D02*
X133359047Y-91454819D01*
X133359047Y-91454819D02*
X133454285Y-91407200D01*
X133454285Y-91407200D02*
X133501904Y-91359580D01*
X133501904Y-91359580D02*
X133549523Y-91264342D01*
X133549523Y-91264342D02*
X133549523Y-90454819D01*
X134549523Y-91454819D02*
X133978095Y-91454819D01*
X134263809Y-91454819D02*
X134263809Y-90454819D01*
X134263809Y-90454819D02*
X134168571Y-90597676D01*
X134168571Y-90597676D02*
X134073333Y-90692914D01*
X134073333Y-90692914D02*
X133978095Y-90740533D01*
X143144761Y-90194819D02*
X142811428Y-89718628D01*
X142573333Y-90194819D02*
X142573333Y-89194819D01*
X142573333Y-89194819D02*
X142954285Y-89194819D01*
X142954285Y-89194819D02*
X143049523Y-89242438D01*
X143049523Y-89242438D02*
X143097142Y-89290057D01*
X143097142Y-89290057D02*
X143144761Y-89385295D01*
X143144761Y-89385295D02*
X143144761Y-89528152D01*
X143144761Y-89528152D02*
X143097142Y-89623390D01*
X143097142Y-89623390D02*
X143049523Y-89671009D01*
X143049523Y-89671009D02*
X142954285Y-89718628D01*
X142954285Y-89718628D02*
X142573333Y-89718628D01*
X143430476Y-89194819D02*
X143763809Y-90194819D01*
X143763809Y-90194819D02*
X144097142Y-89194819D01*
X144954285Y-90194819D02*
X144382857Y-90194819D01*
X144668571Y-90194819D02*
X144668571Y-89194819D01*
X144668571Y-89194819D02*
X144573333Y-89337676D01*
X144573333Y-89337676D02*
X144478095Y-89432914D01*
X144478095Y-89432914D02*
X144382857Y-89480533D01*
X123333333Y-93659580D02*
X123285714Y-93707200D01*
X123285714Y-93707200D02*
X123142857Y-93754819D01*
X123142857Y-93754819D02*
X123047619Y-93754819D01*
X123047619Y-93754819D02*
X122904762Y-93707200D01*
X122904762Y-93707200D02*
X122809524Y-93611961D01*
X122809524Y-93611961D02*
X122761905Y-93516723D01*
X122761905Y-93516723D02*
X122714286Y-93326247D01*
X122714286Y-93326247D02*
X122714286Y-93183390D01*
X122714286Y-93183390D02*
X122761905Y-92992914D01*
X122761905Y-92992914D02*
X122809524Y-92897676D01*
X122809524Y-92897676D02*
X122904762Y-92802438D01*
X122904762Y-92802438D02*
X123047619Y-92754819D01*
X123047619Y-92754819D02*
X123142857Y-92754819D01*
X123142857Y-92754819D02*
X123285714Y-92802438D01*
X123285714Y-92802438D02*
X123333333Y-92850057D01*
X123714286Y-92850057D02*
X123761905Y-92802438D01*
X123761905Y-92802438D02*
X123857143Y-92754819D01*
X123857143Y-92754819D02*
X124095238Y-92754819D01*
X124095238Y-92754819D02*
X124190476Y-92802438D01*
X124190476Y-92802438D02*
X124238095Y-92850057D01*
X124238095Y-92850057D02*
X124285714Y-92945295D01*
X124285714Y-92945295D02*
X124285714Y-93040533D01*
X124285714Y-93040533D02*
X124238095Y-93183390D01*
X124238095Y-93183390D02*
X123666667Y-93754819D01*
X123666667Y-93754819D02*
X124285714Y-93754819D01*
X148736905Y-92204819D02*
X148736905Y-91204819D01*
X148736905Y-91204819D02*
X148975000Y-91204819D01*
X148975000Y-91204819D02*
X149117857Y-91252438D01*
X149117857Y-91252438D02*
X149213095Y-91347676D01*
X149213095Y-91347676D02*
X149260714Y-91442914D01*
X149260714Y-91442914D02*
X149308333Y-91633390D01*
X149308333Y-91633390D02*
X149308333Y-91776247D01*
X149308333Y-91776247D02*
X149260714Y-91966723D01*
X149260714Y-91966723D02*
X149213095Y-92061961D01*
X149213095Y-92061961D02*
X149117857Y-92157200D01*
X149117857Y-92157200D02*
X148975000Y-92204819D01*
X148975000Y-92204819D02*
X148736905Y-92204819D01*
X149641667Y-91204819D02*
X150260714Y-91204819D01*
X150260714Y-91204819D02*
X149927381Y-91585771D01*
X149927381Y-91585771D02*
X150070238Y-91585771D01*
X150070238Y-91585771D02*
X150165476Y-91633390D01*
X150165476Y-91633390D02*
X150213095Y-91681009D01*
X150213095Y-91681009D02*
X150260714Y-91776247D01*
X150260714Y-91776247D02*
X150260714Y-92014342D01*
X150260714Y-92014342D02*
X150213095Y-92109580D01*
X150213095Y-92109580D02*
X150165476Y-92157200D01*
X150165476Y-92157200D02*
X150070238Y-92204819D01*
X150070238Y-92204819D02*
X149784524Y-92204819D01*
X149784524Y-92204819D02*
X149689286Y-92157200D01*
X149689286Y-92157200D02*
X149641667Y-92109580D01*
X136653333Y-86924819D02*
X136320000Y-86448628D01*
X136081905Y-86924819D02*
X136081905Y-85924819D01*
X136081905Y-85924819D02*
X136462857Y-85924819D01*
X136462857Y-85924819D02*
X136558095Y-85972438D01*
X136558095Y-85972438D02*
X136605714Y-86020057D01*
X136605714Y-86020057D02*
X136653333Y-86115295D01*
X136653333Y-86115295D02*
X136653333Y-86258152D01*
X136653333Y-86258152D02*
X136605714Y-86353390D01*
X136605714Y-86353390D02*
X136558095Y-86401009D01*
X136558095Y-86401009D02*
X136462857Y-86448628D01*
X136462857Y-86448628D02*
X136081905Y-86448628D01*
X137605714Y-86924819D02*
X137034286Y-86924819D01*
X137320000Y-86924819D02*
X137320000Y-85924819D01*
X137320000Y-85924819D02*
X137224762Y-86067676D01*
X137224762Y-86067676D02*
X137129524Y-86162914D01*
X137129524Y-86162914D02*
X137034286Y-86210533D01*
X150523333Y-86054819D02*
X150190000Y-85578628D01*
X149951905Y-86054819D02*
X149951905Y-85054819D01*
X149951905Y-85054819D02*
X150332857Y-85054819D01*
X150332857Y-85054819D02*
X150428095Y-85102438D01*
X150428095Y-85102438D02*
X150475714Y-85150057D01*
X150475714Y-85150057D02*
X150523333Y-85245295D01*
X150523333Y-85245295D02*
X150523333Y-85388152D01*
X150523333Y-85388152D02*
X150475714Y-85483390D01*
X150475714Y-85483390D02*
X150428095Y-85531009D01*
X150428095Y-85531009D02*
X150332857Y-85578628D01*
X150332857Y-85578628D02*
X149951905Y-85578628D01*
X150904286Y-85150057D02*
X150951905Y-85102438D01*
X150951905Y-85102438D02*
X151047143Y-85054819D01*
X151047143Y-85054819D02*
X151285238Y-85054819D01*
X151285238Y-85054819D02*
X151380476Y-85102438D01*
X151380476Y-85102438D02*
X151428095Y-85150057D01*
X151428095Y-85150057D02*
X151475714Y-85245295D01*
X151475714Y-85245295D02*
X151475714Y-85340533D01*
X151475714Y-85340533D02*
X151428095Y-85483390D01*
X151428095Y-85483390D02*
X150856667Y-86054819D01*
X150856667Y-86054819D02*
X151475714Y-86054819D01*
D11*
%TO.C,C1*%
X123765000Y-87685000D02*
X124140000Y-87685000D01*
X123952500Y-87497500D02*
X123952500Y-87872500D01*
X124569437Y-88060000D02*
X125269437Y-87360000D01*
X124569437Y-90180000D02*
X125269437Y-90880000D01*
X125269437Y-87360000D02*
X127900000Y-87360000D01*
X125269437Y-90880000D02*
X127900000Y-90880000D01*
X127900000Y-87360000D02*
X127900000Y-88060000D01*
X127900000Y-90880000D02*
X127900000Y-90180000D01*
%TO.C,J2*%
X118850000Y-72887500D02*
X118850000Y-68487500D01*
X118850000Y-78537500D02*
X118850000Y-76987500D01*
X120250000Y-64837500D02*
X133750000Y-64837500D01*
X120400000Y-78537500D02*
X118850000Y-78537500D01*
X120400000Y-82537500D02*
X120400000Y-78537500D01*
X124000000Y-64097500D02*
X125000000Y-64097500D01*
X124500000Y-64597500D02*
X124000000Y-64097500D01*
X125000000Y-64097500D02*
X124500000Y-64597500D01*
X133600000Y-78537500D02*
X133600000Y-82537500D01*
X133600000Y-82537500D02*
X120400000Y-82537500D01*
X135150000Y-68487500D02*
X135150000Y-72887500D01*
X135150000Y-76987500D02*
X135150000Y-78537500D01*
X135150000Y-78537500D02*
X133600000Y-78537500D01*
D12*
%TO.C,D2*%
X148665000Y-91050000D02*
G75*
G02*
X148565000Y-91050000I-50000J0D01*
G01*
X148565000Y-91050000D02*
G75*
G02*
X148665000Y-91050000I50000J0D01*
G01*
D11*
%TO.C,J1*%
X142800000Y-67460000D02*
X145140000Y-67460000D01*
X142800000Y-69800000D02*
X142800000Y-67460000D01*
X143040000Y-70150000D02*
X146590000Y-67700000D01*
X143040000Y-80900000D02*
X143040000Y-70150000D01*
X143990000Y-80900000D02*
X143040000Y-80900000D01*
X143990000Y-84900000D02*
X143990000Y-80900000D01*
X146590000Y-67700000D02*
X154590000Y-67700000D01*
X154590000Y-67700000D02*
X158140000Y-70150000D01*
X157190000Y-80900000D02*
X157190000Y-84900000D01*
X157190000Y-84900000D02*
X143990000Y-84900000D01*
X158140000Y-70150000D02*
X158140000Y-80900000D01*
X158140000Y-80900000D02*
X157190000Y-80900000D01*
%TO.C,U1*%
X133740000Y-91840000D02*
X131790000Y-91840000D01*
X133740000Y-91840000D02*
X135690000Y-91840000D01*
X133740000Y-96960000D02*
X131790000Y-96960000D01*
X133740000Y-96960000D02*
X135690000Y-96960000D01*
X131040000Y-91935000D02*
X130800000Y-91605000D01*
X131280000Y-91605000D01*
X131040000Y-91935000D01*
G36*
X131040000Y-91935000D02*
G01*
X130800000Y-91605000D01*
X131280000Y-91605000D01*
X131040000Y-91935000D01*
G37*
%TO.C,RV1*%
X143619000Y-92866000D02*
X143619000Y-95735000D01*
X143619000Y-93180000D02*
X143619000Y-95420000D01*
X143619000Y-93180000D02*
X147360000Y-93180000D01*
X143619000Y-95420000D02*
X147360000Y-95420000D01*
X144665000Y-91030000D02*
X147360000Y-91030000D01*
X144665000Y-97570000D02*
X147360000Y-97570000D01*
X147360000Y-91030000D02*
X147360000Y-97570000D01*
X147360000Y-93180000D02*
X147360000Y-95420000D01*
%TO.C,C2*%
X121125000Y-94565000D02*
X121500000Y-94565000D01*
X121312500Y-94377500D02*
X121312500Y-94752500D01*
X121929437Y-94940000D02*
X122629437Y-94240000D01*
X121929437Y-97060000D02*
X122629437Y-97760000D01*
X122629437Y-94240000D02*
X125260000Y-94240000D01*
X122629437Y-97760000D02*
X125260000Y-97760000D01*
X125260000Y-94240000D02*
X125260000Y-94940000D01*
X125260000Y-97760000D02*
X125260000Y-97060000D01*
D12*
%TO.C,D3*%
X148665000Y-92800000D02*
G75*
G02*
X148565000Y-92800000I-50000J0D01*
G01*
X148565000Y-92800000D02*
G75*
G02*
X148665000Y-92800000I50000J0D01*
G01*
D11*
%TO.C,R1*%
X130300000Y-87470000D02*
X130300000Y-90270000D01*
X130300000Y-90270000D02*
X140800000Y-90270000D01*
X133010000Y-87470000D02*
X133010000Y-90270000D01*
X140800000Y-87470000D02*
X130300000Y-87470000D01*
X140800000Y-90270000D02*
X140800000Y-87470000D01*
%TO.C,R2*%
X142900000Y-86600000D02*
X142900000Y-89400000D01*
X142900000Y-89400000D02*
X155940000Y-89400000D01*
X145610000Y-86600000D02*
X145610000Y-89400000D01*
X155940000Y-86600000D02*
X142900000Y-86600000D01*
X155940000Y-89400000D02*
X155940000Y-86600000D01*
%TD*%
M02*
